HIERARCHY
ROOT root
{
	OFFSET	0	13.1	24.9
	CHANNELS 6  Xposition Yposition Zposition Xrotation Yrotation Zrotation
	JOINT spine_1
	{
		OFFSET	0	9.99999	0
		CHANNELS 3  Xrotation Yrotation Zrotation
		JOINT spine_2
		{
			OFFSET	0	112	-10
			CHANNELS 3  Xrotation Yrotation Zrotation
			JOINT spine_3
			{
				OFFSET	0	206.5	19.3
				CHANNELS 3  Xrotation Yrotation Zrotation
				JOINT spine_4
				{
					OFFSET	0	110.4	14.6
					CHANNELS 3  Xrotation Yrotation Zrotation
					JOINT neck_1
					{
						OFFSET	0	71.8	-50.3
						CHANNELS 3  Xrotation Yrotation Zrotation
						JOINT neck_2
						{
							OFFSET	0	86.2	-25.8
							CHANNELS 3  Xrotation Yrotation Zrotation
							JOINT head_ee
							{
								OFFSET	0	179.8	-8.7
								CHANNELS 3  Xrotation Yrotation Zrotation
								End Site
								{
									OFFSET	1	0	0
								}
							}
						}
					}
					JOINT left_clavicle
					{
						OFFSET	-43.2	22.4	-70.8
						CHANNELS 3  Xrotation Yrotation Zrotation
						JOINT left_shoulder
						{
							OFFSET	-93.9	-5.79999	48.7
							CHANNELS 3  Xrotation Yrotation Zrotation
							JOINT left_elbow
							{
								OFFSET	-291.4	-30.8	15.2
								CHANNELS 3  Xrotation Yrotation Zrotation
								JOINT left_lowarm_twist
								{
									OFFSET	-110.7	-3.89999	13.6
									CHANNELS 3  Xrotation Yrotation Zrotation
									JOINT left_hand
									{
										OFFSET	-110.7	-3.89999	13.6
										CHANNELS 3  Xrotation Yrotation Zrotation
										JOINT left_ee
										{
											OFFSET	-80.8	-5.10001	12.1
											CHANNELS 3  Xrotation Yrotation Zrotation
											End Site
											{
												OFFSET	1	0	0
											}
										}
									}
								}
							}
						}
					}
					JOINT right_clavicle
					{
						OFFSET	43.2	22.4	-70.8
						CHANNELS 3  Xrotation Yrotation Zrotation
						JOINT right_shoulder
						{
							OFFSET	93.9	-5.79999	48.7
							CHANNELS 3  Xrotation Yrotation Zrotation
							JOINT right_elbow
							{
								OFFSET	291.4	-30.8	15.2
								CHANNELS 3  Xrotation Yrotation Zrotation
								JOINT right_lowarm_twist
								{
									OFFSET	110.7	-3.89999	13.6
									CHANNELS 3  Xrotation Yrotation Zrotation
									JOINT right_hand
									{
										OFFSET	110.7	-3.89999	13.6
										CHANNELS 3  Xrotation Yrotation Zrotation
										JOINT right_ee
										{
											OFFSET	80.8	-5.10001	12.1
											CHANNELS 3  Xrotation Yrotation Zrotation
											End Site
											{
												OFFSET	1	0	0
											}
										}
									}
								}
							}
						}
					}
				}
			}
		}
	}
	JOINT left_hip
	{
		OFFSET	-82.8	-127.5	0.300001
		CHANNELS 3  Xrotation Yrotation Zrotation
		JOINT left_knee
		{
			OFFSET	-28.2	-396.7	2.2
			CHANNELS 3  Xrotation Yrotation Zrotation
			JOINT left_ankle
			{
				OFFSET	-11.7	-411.3	35.4
				CHANNELS 3  Xrotation Yrotation Zrotation
				JOINT left_toes
				{
					OFFSET	0	-60	-88.6
					CHANNELS 3  Xrotation Yrotation Zrotation
					JOINT left_foot_ee
					{
						OFFSET	-22.5	-16.5	-42.2
						CHANNELS 3  Xrotation Yrotation Zrotation
						End Site
						{
							OFFSET	1	0	0
						}
					}
				}
			}
		}
	}
	JOINT right_hip
	{
		OFFSET	82.8	-127.5	0.300001
		CHANNELS 3  Xrotation Yrotation Zrotation
		JOINT right_knee
		{
			OFFSET	28.2	-396.7	2.2
			CHANNELS 3  Xrotation Yrotation Zrotation
			JOINT right_ankle
			{
				OFFSET	11.7	-411.3	35.4
				CHANNELS 3  Xrotation Yrotation Zrotation
				JOINT right_toes
				{
					OFFSET	0	-60	-88.6
					CHANNELS 3  Xrotation Yrotation Zrotation
					JOINT right_foot_ee
					{
						OFFSET	22.5	-16.5	-42.2
						CHANNELS 3  Xrotation Yrotation Zrotation
						End Site
						{
							OFFSET	1	0	0
						}
					}
				}
			}
		}
	}
}
MOTION
Frames: 16
Frame Time: 0.02
3302.8 726.517 -1578.32 1.63698 58.2072 -2.66688 -0.339747 0.558267 0.921142 -0.339413 0.498523 0.954795 -0.330655 0.280775 1.03986 -0.331892 0.44147 0.982476 -24.2303 20.242 8.39737 -26.8264 35.3789 18.7866 -0.0 0.0 -0.0 3.19731 23.4002 7.10378 -18.1223 -8.33377 59.89 2.20009 -47.4559 0.967149 -43.2516 -3.30341 4.28429 -1.90912 1.79832 -12.0171 -0.0 0.0 -0.0 13.3685 24.7339 -26.6758 -6.13898 13.7105 -64.6183 0.205903 5.82407 -0.010474 70.198 2.76094 7.96367 -2.71852 -23.6776 6.15138 0.0 0.0 0.0 9.23989 30.3283 -16.3705 -43.7142 -0.719808 6.51024 28.043 25.0361 -3.8787 -19.5768 0.0 0.0 -0.0 0.0 -0.0 3.62016 -0.31712 2.74765 -17.796 -0.315361 -2.70178 36.8357 33.2582 5.83875 -29.5195 0.0 0.0 0.0 0.0 0.0 
3295.0 729.411 -1577.43 0.574755 59.4169 -1.90935 -0.232204 0.645233 0.831347 -0.232014 0.591027 0.870717 -0.222649 0.391094 0.976982 -0.223573 0.540476 0.902964 -24.2037 20.2166 6.10159 -27.0988 36.279 16.8096 -0.0 0.0 -0.0 3.62829 23.1868 7.70045 -18.8221 -8.05322 60.1237 2.02475 -45.0807 0.840423 -44.2058 -3.40914 4.3461 -1.44414 0.784001 -9.33488 -0.0 0.0 -0.0 13.8295 25.4562 -27.6696 -4.71669 14.2929 -64.1027 0.189548 5.36428 -0.00887962 69.8489 2.72471 7.93734 -2.07146 -22.9669 2.79087 0.0 0.0 0.0 12.7925 28.9565 -17.45 -51.8882 -1.39056 7.57359 32.9455 27.7451 -4.51963 -18.6895 0.0 0.0 -0.0 0.0 -0.0 3.26468 0.917613 2.97886 -17.0513 -0.319089 -2.58758 37.0154 33.1314 5.84809 -30.8979 0.0 0.0 0.0 0.0 0.0 
3298.47 722.237 -1577.12 -3.08831 61.2377 1.89906 -0.131596 0.728351 0.729184 -0.131558 0.680476 0.774051 -0.122061 0.500741 0.900808 -0.122627 0.636718 0.810427 -25.107 20.0084 4.73331 -28.279 36.4803 15.8861 -0.0 0.0 -0.0 3.49443 22.8077 7.51086 -19.9257 -6.68551 59.7876 1.83783 -42.3108 0.711253 -45.5271 -3.55721 4.42877 -0.729811 -1.73888 -5.63681 -0.0 0.0 -0.0 13.8498 25.5143 -27.7101 -2.74243 14.9477 -63.6827 0.212122 5.99871 -0.0111144 69.7841 2.718 7.93243 -1.12814 -21.5551 -2.02785 0.0 0.0 0.0 17.5642 26.7771 -19.3722 -63.5648 -2.59697 8.9061 39.798 30.0737 -5.33955 -17.42 0.0 0.0 -0.0 0.0 -0.0 3.35839 2.74473 3.1483 -15.8433 -0.321977 -2.40227 36.8227 31.7048 5.71711 -31.9431 0.0 0.0 0.0 0.0 0.0 
3292.92 724.021 -1581.57 -4.23452 63.2254 2.67235 0.032009 0.625445 0.775178 0.0321593 0.574853 0.813404 0.0406291 0.391762 0.915748 0.0398533 0.531466 0.842392 -25.165 19.8029 4.46122 -28.2982 36.1995 15.5235 -0.0 0.0 -0.0 3.39265 22.2464 7.36125 -20.6661 -5.98551 59.7996 1.68534 -39.8541 0.611021 -46.8476 -3.70705 4.50796 -0.115597 -2.62874 -1.88806 -0.0 0.0 -0.0 13.9755 25.7372 -27.9778 -1.52881 15.5285 -64.5292 0.229677 6.49108 -0.0130241 70.0166 2.74209 7.95002 -0.92549 -20.4134 -2.72769 0.0 0.0 0.0 21.1378 28.559 -20.0482 -55.4839 -1.73256 8.00943 29.9522 26.6211 -4.14321 -20.0472 0.0 0.0 -0.0 0.0 -0.0 3.67505 2.93468 2.50389 -15.4409 -0.322071 -2.34053 36.9174 31.6966 5.72665 -31.3814 0.0 0.0 0.0 0.0 0.0 
3290.2 726.575 -1586.64 -5.98708 64.8387 3.96883 0.179751 0.556889 0.90419 0.180068 0.498227 0.937791 0.188583 0.293415 1.02058 0.187413 0.450906 0.961437 -25.2657 19.4964 4.10044 -28.3379 35.7624 15.0266 -0.0 0.0 -0.0 3.55011 21.8752 7.58166 -21.7546 -5.08286 60.5765 1.48791 -36.3903 0.489084 -48.7161 -3.92209 4.61408 0.759531 -3.85469 3.4821 -0.0 0.0 -0.0 14.1887 26.1276 -28.4298 0.57866 16.3826 -66.6035 0.257093 7.25808 -0.0163058 70.3794 2.77983 7.97728 -0.640561 -18.7962 -3.74785 0.0 0.0 0.0 27.3958 30.2594 -22.4099 -43.5123 -0.705206 6.48284 16.0747 21.1309 -2.29778 -23.7987 0.0 0.0 -0.0 0.0 -0.0 3.50316 3.12545 2.5835 -15.0432 -0.321738 -2.27952 37.0837 31.7279 5.74675 -30.5811 0.0 0.0 0.0 0.0 0.0 
3293.54 728.799 -1588.6 -9.56787 66.66 7.64358 0.475717 0.410786 0.942897 0.476143 0.349957 0.967123 0.482345 0.147483 1.01786 0.48103 0.306376 0.981798 -25.4191 18.78 5.08137 -28.1288 34.0111 15.4104 -0.0 0.0 -0.0 3.46691 21.218 7.45463 -21.9372 -3.50577 60.207 1.28338 -32.4447 0.373414 -50.7719 -4.16252 4.72267 1.46986 -4.61685 7.97219 -0.0 0.0 -0.0 14.4445 26.669 -28.9612 2.60506 17.0487 -65.738 0.331429 9.32384 -0.0270267 70.9266 2.83708 8.01793 -0.394844 -18.1084 -4.9503 0.0 0.0 0.0 32.9792 32.8616 -24.9441 -35.4506 -0.202985 5.35096 5.37525 12.1906 -0.777365 -25.2414 0.0 0.0 -0.0 0.0 -0.0 2.94373 2.21874 2.86222 -14.2527 -0.31982 -2.15825 37.6197 31.8551 5.81305 -29.4191 0.0 0.0 0.0 0.0 0.0 
3278.78 716.066 -1589.11 -8.36442 68.1449 5.90967 0.429689 0.510109 1.04095 0.430183 0.442841 1.07129 0.43885 0.216576 1.1388 0.437257 0.393699 1.09031 -27.1085 17.8929 6.13592 -29.6479 31.9805 16.3403 -0.0 0.0 -0.0 3.31018 21.9302 7.23936 -23.0905 -4.11547 59.8561 1.15425 -29.759 0.306689 -52.4058 -4.35626 4.80277 1.93991 -5.86152 10.6605 -0.0 0.0 -0.0 14.6121 26.779 -29.3414 3.5022 17.2904 -65.1369 0.440557 12.3113 -0.0475151 71.7116 2.91988 8.0753 0.0866593 -16.5283 -7.27354 0.0 0.0 0.0 35.9946 33.122 -25.7803 -33.3618 -0.0993121 5.04733 0.721944 7.62285 -0.105476 -25.2608 0.0 0.0 -0.0 0.0 -0.0 2.277 0.533094 3.19437 -14.6 -0.320869 -2.21153 37.3112 31.2023 5.73196 -28.9097 0.0 0.0 0.0 0.0 0.0 
3270.93 721.171 -1589.71 -9.8104 69.458 7.36478 0.481288 0.533212 0.994621 0.481716 0.468844 1.02653 0.490475 0.252105 1.1 0.489036 0.422657 1.04639 -26.0067 17.6167 6.40939 -28.2506 31.2975 15.9674 -0.0 0.0 -0.0 3.47784 22.4721 7.48443 -23.9193 -4.37952 59.7902 1.0308 -27.0494 0.247949 -53.75 -4.5173 4.86451 2.35967 -7.54469 12.8328 -0.0 0.0 -0.0 14.8027 26.9121 -29.7733 3.72564 17.4204 -65.0935 0.505139 14.0489 -0.0622423 71.9898 2.94941 8.09536 0.636994 -14.8094 -10.0627 0.0 0.0 0.0 38.7034 33.6276 -26.628 -31.169 -0.00248309 4.7248 -3.29935 3.18455 0.488485 -24.6745 0.0 0.0 -0.0 0.0 -0.0 1.16321 1.53511 3.7608 -15.1535 -0.321873 -2.29644 37.2059 30.6322 5.67978 -26.3557 0.0 0.0 0.0 0.0 0.0 
3256.78 718.626 -1587.42 -8.26244 69.9811 5.46337 0.490491 0.586338 0.97119 0.490863 0.523353 1.00653 0.500417 0.309728 1.09135 0.499074 0.478191 1.02875 -25.1879 17.4842 5.28086 -27.3917 31.4472 14.5907 -0.0 0.0 -0.0 3.66812 22.8555 7.75502 -25.6189 -3.78692 60.0722 0.93142 -24.7681 0.204519 -54.8092 -4.64517 4.91049 2.50796 -8.25738 13.5499 -0.0 0.0 -0.0 14.7629 27.0624 -29.6585 4.29079 17.713 -64.86 0.596349 16.458 -0.0862441 71.9061 2.94052 8.08934 0.851968 -14.696 -11.3829 0.0 0.0 0.0 39.5963 33.9446 -26.4617 -28.6854 0.0921704 4.35543 -6.33122 1.50846 0.94588 -24.5159 0.0 0.0 -0.0 0.0 -0.0 0.105833 2.47102 4.26506 -14.6754 -0.321054 -2.22308 36.9982 30.2179 5.62884 -25.0291 0.0 0.0 0.0 0.0 0.0 
3246.73 720.587 -1584.75 -11.0376 70.2797 8.11309 0.61854 0.645587 0.910763 0.61881 0.586327 0.949994 0.628855 0.385164 1.04781 0.627738 0.545805 0.973839 -24.0265 17.2527 3.61532 -26.158 31.6461 12.5615 -0.0 0.0 -0.0 3.94244 23.0365 8.13975 -27.5423 -3.11268 60.2275 0.816632 -22.025 0.158924 -56.2714 -4.82303 4.97005 2.69849 -9.26478 14.4292 -0.0 0.0 -0.0 14.7005 27.2728 -29.4822 5.08588 18.1319 -64.5291 0.730408 19.8913 -0.128078 71.8371 2.93319 8.08437 1.1564 -14.542 -13.2713 0.0 0.0 0.0 40.7887 34.4148 -26.3114 -25.2048 0.19767 3.83177 -10.4042 -0.722883 1.57314 -24.266 0.0 0.0 -0.0 0.0 -0.0 -1.20833 3.78572 4.84978 -13.7939 -0.317939 -2.08788 37.0941 29.7237 5.60498 -23.1313 0.0 0.0 0.0 0.0 0.0 
3236.68 722.83 -1582.55 -12.2015 70.7691 9.05277 0.658393 0.742517 0.91271 0.658597 0.682937 0.958105 0.670357 0.479014 1.07466 0.669322 0.642717 0.985535 -22.4664 16.8757 1.46943 -24.4557 31.829 9.88851 -0.0 0.0 -0.0 4.14639 23.4139 8.42152 -30.4527 -2.09971 60.4525 0.682038 -18.6682 0.112106 -58.1123 -5.04897 5.03854 2.88823 -10.7293 15.0913 -0.0 0.0 -0.0 14.5286 27.5557 -29.0382 5.81744 18.5616 -64.1121 0.862024 23.1233 -0.17635 71.8164 2.93099 8.08288 1.55027 -14.2801 -15.7258 0.0 0.0 0.0 42.4501 35.0871 -26.0902 -20.2376 0.292739 3.0757 -15.906 -3.17373 2.43842 -24.0533 0.0 0.0 -0.0 0.0 -0.0 -2.6328 5.72063 5.57993 -11.7666 -0.302884 -1.7772 37.2868 29.0584 5.58055 -20.4546 0.0 0.0 0.0 0.0 0.0 
3229.63 720.666 -1574.74 -14.6676 71.4804 11.7567 0.64032 0.665118 0.95267 0.640623 0.603152 0.993058 0.651424 0.393502 1.0932 0.650196 0.561206 1.01735 -22.8148 16.5789 1.6048 -24.7589 31.2037 9.94454 -0.0 0.0 -0.0 4.39656 23.0243 8.77765 -30.9535 -1.85228 61.1982 0.611267 -16.8466 0.0905191 -58.813 -5.13552 5.0627 2.95275 -10.2328 15.7683 -0.0 0.0 -0.0 14.0954 27.2171 -28.0696 6.15751 19.0618 -63.7312 1.05567 27.6065 -0.259367 71.785 2.92766 8.08061 2.14098 -13.9863 -19.5241 0.0 0.0 0.0 43.6525 35.0516 -25.1419 -17.2856 0.318076 2.62353 -16.3272 -2.77072 2.50009 -24.4099 0.0 0.0 -0.0 0.0 -0.0 -1.9723 6.43906 5.54015 -7.72571 -0.240147 -1.16045 34.8116 27.7313 5.23419 -17.7043 0.0 0.0 0.0 0.0 0.0 
3224.63 704.66 -1564.85 -18.4969 72.2063 15.4233 0.78251 0.550523 1.0084 0.782945 0.485244 1.04138 0.792083 0.271057 1.11644 0.790618 0.443967 1.05963 -22.7931 16.3073 2.64894 -24.577 30.2144 10.6971 -0.0 0.0 -0.0 4.56464 22.4382 9.0274 -31.615 -1.52311 62.2663 0.574999 -15.8991 0.0802953 -59.3664 -5.20406 5.08102 2.92827 -9.71778 15.8305 -0.0 0.0 -0.0 13.612 26.7895 -26.9987 7.69147 19.9695 -63.0983 1.32065 33.1915 -0.393611 72.3645 2.98934 8.12216 2.28548 -14.5169 -20.6609 0.0 0.0 0.0 44.7983 35.2828 -23.3589 -13.3661 0.315677 2.02228 -17.4596 -0.754498 2.65802 -25.0492 0.0 0.0 -0.0 0.0 -0.0 -2.98122 9.43706 6.28504 -10.6501 -0.289902 -1.60638 37.8434 26.7908 5.49527 -12.9995 0.0 0.0 0.0 0.0 0.0 
3217.18 709.533 -1562.25 -19.8367 72.5856 16.6618 0.859859 0.428348 1.02269 0.860368 0.362407 1.04787 0.867267 0.150759 1.09847 0.865728 0.32234 1.06088 -21.7513 16.7518 2.66879 -23.5115 31.0193 10.6315 -0.0 0.0 -0.0 4.53409 22.0175 8.99229 -33.4307 -0.769638 63.5612 0.576568 -15.9403 0.0807256 -59.5237 -5.22357 5.0861 2.78063 -9.33334 14.9711 -0.0 0.0 -0.0 13.3977 26.4777 -26.5402 8.2051 20.3968 -62.63 1.48244 36.2897 -0.485845 72.5981 3.01433 8.13873 2.39764 -14.3637 -21.369 0.0 0.0 0.0 46.1389 35.0701 -21.9362 -9.42889 0.271894 1.41987 -18.9842 0.480072 2.88259 -25.461 0.0 0.0 -0.0 0.0 -0.0 -3.37696 10.2681 6.90308 -10.5364 -0.288394 -1.58901 37.406 25.1356 5.35757 -11.2777 0.0 0.0 0.0 0.0 0.0 
3206.34 711.055 -1557.11 -21.423 73.0603 18.0798 0.928612 0.230047 1.04379 0.929204 0.163165 1.05631 0.932405 -0.0451144 1.06788 0.930835 0.124094 1.06161 -20.1911 17.3662 2.46539 -21.9012 32.2203 10.2642 -0.0 0.0 -0.0 4.60163 22.026 9.08924 -34.9783 -0.204962 64.1342 0.57932 -16.0125 0.0814832 -59.4377 -5.21291 5.08333 2.7305 -9.40024 14.5917 -0.0 0.0 -0.0 13.6095 26.6419 -27.0118 8.34975 20.5995 -62.5559 1.57635 37.9828 -0.542547 72.8583 3.04223 8.15707 2.49538 -14.5629 -22.0931 0.0 0.0 0.0 45.1134 34.8809 -18.8241 -2.02351 0.0780121 0.300725 -19.0609 2.35887 2.8822 -26.6769 0.0 0.0 -0.0 0.0 -0.0 -3.76546 10.9467 7.62257 -10.7297 -0.290938 -1.61856 38.0855 23.5737 5.3424 -10.458 0.0 0.0 0.0 0.0 0.0 
3190.56 705.32 -1552.79 -23.5466 72.726 20.1952 1.01968 0.0932322 1.1162 1.02037 0.022021 1.11987 1.02094 -0.19424 1.10312 1.01924 -0.0175961 1.11995 -19.9616 17.8897 2.64091 -21.7495 33.1262 10.6286 -0.0 0.0 -0.0 4.40927 23.0074 8.79584 -37.8761 0.78837 65.0738 0.56915 -15.7454 0.0787004 -60.3089 -5.3212 5.11069 2.71161 -10.1064 14.1436 -0.0 0.0 -0.0 13.8424 26.8192 -27.5313 9.13385 21.1924 -62.1518 1.71531 40.3515 -0.630327 73.2306 3.08231 8.18309 2.49873 -14.7129 -22.1618 0.0 0.0 0.0 44.0406 33.1176 -15.9962 4.64371 -0.21889 -0.67865 -19.1532 5.82225 2.88214 -28.3383 0.0 0.0 -0.0 0.0 -0.0 -4.31194 10.5938 7.7775 -11.0054 -0.294395 -1.66071 38.4734 22.8576 5.34396 -10.8148 0.0 0.0 0.0 0.0 0.0 
